<svg xmlns="http://www.w3.org/2000/svg" xmlns:xlink="http://www.w3.org/1999/xlink" width="115" height="434.02" viewBox="0 0 115 434.02">
  <defs>
    <style>
      .cls-1 {
        clip-path: url(#clip-tower);
      }

      .cls-2 {
        fill: #e03c3c;
      }
    </style>
    <clipPath id="clip-tower">
      <rect width="115" height="434.02"/>
    </clipPath>
  </defs>
  <g id="tower" class="cls-1">
    <g id="Group_11" data-name="Group 11" transform="translate(-193 -66)">
      <rect id="Rectangle_6" data-name="Rectangle 6" class="cls-2" width="7" height="54" transform="translate(247 66)"/>
      <rect id="Rectangle_8" data-name="Rectangle 8" class="cls-2" width="11" height="38" transform="translate(245 113)"/>
      <path id="Path_1" data-name="Path 1" class="cls-2" d="M11.368,0H43.1l9.779,237.577L26.49,239.025.436,237.577Z" transform="translate(223.999 261)"/>
      <path id="Path_2" data-name="Path 2" class="cls-2" d="M32.575,0H0L6.572,12.148H26.016Z" transform="translate(233.779 152.852)"/>
      <rect id="Rectangle_9" data-name="Rectangle 9" class="cls-2" width="62" height="59" rx="3" transform="translate(219 202)"/>
      <path id="Polygon_1" data-name="Polygon 1" class="cls-2" d="M20.352,2.4a2,2,0,0,1,3.3,0l18.2,26.47A2,2,0,0,1,40.2,32H3.8a2,2,0,0,1-1.648-3.133Z" transform="translate(193 252) rotate(-90)"/>
      <rect id="Rectangle_11" data-name="Rectangle 11" class="cls-2" width="83" height="24" rx="12" transform="translate(209 247)"/>
      <rect id="Rectangle_7" data-name="Rectangle 7" class="cls-2" width="15" height="51" transform="translate(243 128)"/>
      <path id="Path_3" data-name="Path 3" class="cls-2" d="M.235,0H19.287l1.187,43.137H-.868Z" transform="translate(240.461 165)"/>
      <path id="Polygon_2" data-name="Polygon 2" class="cls-2" d="M20.352,2.4a2,2,0,0,1,3.3,0l18.2,26.47A2,2,0,0,1,40.2,32H3.8a2,2,0,0,1-1.648-3.133Z" transform="translate(308 208) rotate(90)"/>
    </g>
  </g>
</svg>
